<?xml version="1.0" encoding="UTF-8"?>
<svg id="Layer_2" data-name="Layer 2" xmlns="http://www.w3.org/2000/svg" viewBox="0 0 273.55 113.63">
  <defs>
    <style>
      .cls-1 {
        fill: #376e27;
      }
    </style>
  </defs>
  <g id="Layer_1-2" data-name="Layer 1">
    <g>
      <path class="cls-1" d="M119.19,111.44c-2.17,0-3.92-1.76-3.92-3.92v-29.69c0-10.09-8.21-18.29-18.29-18.29s-18.29,8.21-18.29,18.29v29.69c0,2.17-1.76,3.92-3.92,3.92s-3.92-1.76-3.92-3.92v-29.69c0-14.41,11.73-26.14,26.14-26.14s26.14,11.73,26.14,26.14v29.69c0,2.17-1.76,3.92-3.92,3.92Z"/>
      <path class="cls-1" d="M149.19,113.63c-14.41,0-26.14-11.73-26.14-26.14v-7.47c0-14.41,11.73-26.14,26.14-26.14s26.14,11.73,26.14,26.14v7.47c0,14.41-11.73,26.14-26.14,26.14Zm0-51.91c-10.09,0-18.29,8.21-18.29,18.29v7.47c0,10.09,8.2,18.29,18.29,18.29s18.29-8.21,18.29-18.29v-7.47c0-10.09-8.21-18.29-18.29-18.29Z"/>
      <path class="cls-1" d="M201.46,113.63c-14.41,0-26.14-11.73-26.14-26.14v-7.47c0-14.41,11.73-26.14,26.14-26.14s26.14,11.73,26.14,26.14v7.47c0,14.41-11.73,26.14-26.14,26.14Zm0-51.91c-10.09,0-18.29,8.21-18.29,18.29v7.47c0,10.09,8.21,18.29,18.29,18.29s18.29-8.21,18.29-18.29v-7.47c0-10.09-8.21-18.29-18.29-18.29Z"/>
      <g>
        <path class="cls-1" d="M231.49,111.91c-2.17,0-3.92-1.76-3.92-3.92V3.92c0-2.17,1.76-3.92,3.92-3.92s3.92,1.76,3.92,3.92V107.99c0,2.17-1.76,3.92-3.92,3.92Z"/>
        <path class="cls-1" d="M269.62,111.91c-2.17,0-3.92-1.76-3.92-3.92v-20.89c0-6.76-5.27-12.56-11.99-13.21-2.16-.21-3.74-2.13-3.53-4.28,.21-2.16,2.16-3.74,4.28-3.53,10.7,1.03,19.09,10.27,19.09,21.02v20.89c0,2.17-1.76,3.92-3.92,3.92Z"/>
        <path class="cls-1" d="M232.24,101.64c-.85,0-1.7-.27-2.43-.84-1.7-1.34-2-3.81-.66-5.51l37.38-47.46c1.34-1.7,3.81-2,5.51-.65,1.7,1.34,2,3.81,.66,5.51l-37.38,47.46c-.78,.98-1.93,1.5-3.09,1.5Z"/>
      </g>
      <g>
        <path class="cls-1" d="M23.62,92.31c0-8.64,7.07-15.72,15.72-15.72s15.72,7.07,15.72,15.72v15.21h19.7L39.34,3.92,3.92,107.51H23.62v-15.21Z"/>
        <path class="cls-1" d="M74.76,111.44h-19.7c-2.17,0-3.92-1.76-3.92-3.92v-15.2c0-6.5-5.29-11.79-11.79-11.79s-11.79,5.29-11.79,11.79v15.2c0,2.17-1.76,3.92-3.92,3.92H3.93c-1.27,0-2.46-.61-3.19-1.64-.74-1.03-.93-2.35-.52-3.55L35.63,2.66c.54-1.59,2.03-2.66,3.71-2.66s3.17,1.07,3.71,2.66l35.42,103.59c.41,1.2,.22,2.52-.52,3.55-.74,1.03-1.93,1.64-3.19,1.64Zm-15.77-7.85h10.28L39.34,16.06,9.42,103.59h10.28v-11.28c0-10.83,8.81-19.64,19.64-19.64s19.64,8.81,19.64,19.64v11.28Z"/>
      </g>
    </g>
  </g>
</svg>