<svg width="27" height="24" viewBox="0 0 27 24" fill="none" xmlns="http://www.w3.org/2000/svg">
<path d="M18.8703 3.89607L23.0993 8.12502C23.2774 8.30318 23.2774 8.59387 23.0993 8.77203L12.8598 19.0115L8.50891 19.4944C7.92755 19.5601 7.43527 19.0678 7.50091 18.4864L7.98381 14.1356L18.2233 3.89607C18.4015 3.71791 18.6922 3.71791 18.8703 3.89607ZM26.4655 2.82243L24.1776 0.534479C23.465 -0.17816 22.3069 -0.17816 21.5896 0.534479L19.9299 2.19418C19.7517 2.37234 19.7517 2.66302 19.9299 2.84118L24.1588 7.07013C24.337 7.24829 24.6277 7.24829 24.8058 7.07013L26.4655 5.41043C27.1782 4.6931 27.1782 3.53507 26.4655 2.82243ZM17.9983 16.2266V20.9994H2.99534V5.99648H13.7693C13.9193 5.99648 14.06 5.93553 14.1678 5.83239L16.0432 3.95702C16.3995 3.6007 16.1463 2.9959 15.6447 2.9959H2.24519C1.00276 2.9959 -0.00524902 4.00391 -0.00524902 5.24634V21.7496C-0.00524902 22.992 1.00276 24 2.24519 24H18.7484C19.9908 24 20.9989 22.992 20.9989 21.7496V14.3512C20.9989 13.8496 20.394 13.6011 20.0377 13.9527L18.1624 15.8281C18.0592 15.9359 17.9983 16.0766 17.9983 16.2266Z" fill="#1F1813"/>
<path d="M18.8703 3.89607L23.0993 8.12502C23.2774 8.30318 23.2774 8.59387 23.0993 8.77203L12.8598 19.0115L8.50891 19.4944C7.92755 19.5601 7.43527 19.0678 7.50091 18.4864L7.98381 14.1356L18.2233 3.89607C18.4015 3.71791 18.6922 3.71791 18.8703 3.89607ZM26.4655 2.82243L24.1776 0.534479C23.465 -0.17816 22.3069 -0.17816 21.5896 0.534479L19.9299 2.19418C19.7517 2.37234 19.7517 2.66302 19.9299 2.84118L24.1588 7.07013C24.337 7.24829 24.6277 7.24829 24.8058 7.07013L26.4655 5.41043C27.1782 4.6931 27.1782 3.53507 26.4655 2.82243ZM17.9983 16.2266V20.9994H2.99534V5.99648H13.7693C13.9193 5.99648 14.06 5.93553 14.1678 5.83239L16.0432 3.95702C16.3995 3.6007 16.1463 2.9959 15.6447 2.9959H2.24519C1.00276 2.9959 -0.00524902 4.00391 -0.00524902 5.24634V21.7496C-0.00524902 22.992 1.00276 24 2.24519 24H18.7484C19.9908 24 20.9989 22.992 20.9989 21.7496V14.3512C20.9989 13.8496 20.394 13.6011 20.0377 13.9527L18.1624 15.8281C18.0592 15.9359 17.9983 16.0766 17.9983 16.2266Z" fill="black" fill-opacity="0.2"/>
<path d="M18.8703 3.89607L23.0993 8.12502C23.2774 8.30318 23.2774 8.59387 23.0993 8.77203L12.8598 19.0115L8.50891 19.4944C7.92755 19.5601 7.43527 19.0678 7.50091 18.4864L7.98381 14.1356L18.2233 3.89607C18.4015 3.71791 18.6922 3.71791 18.8703 3.89607ZM26.4655 2.82243L24.1776 0.534479C23.465 -0.17816 22.3069 -0.17816 21.5896 0.534479L19.9299 2.19418C19.7517 2.37234 19.7517 2.66302 19.9299 2.84118L24.1588 7.07013C24.337 7.24829 24.6277 7.24829 24.8058 7.07013L26.4655 5.41043C27.1782 4.6931 27.1782 3.53507 26.4655 2.82243ZM17.9983 16.2266V20.9994H2.99534V5.99648H13.7693C13.9193 5.99648 14.06 5.93553 14.1678 5.83239L16.0432 3.95702C16.3995 3.6007 16.1463 2.9959 15.6447 2.9959H2.24519C1.00276 2.9959 -0.00524902 4.00391 -0.00524902 5.24634V21.7496C-0.00524902 22.992 1.00276 24 2.24519 24H18.7484C19.9908 24 20.9989 22.992 20.9989 21.7496V14.3512C20.9989 13.8496 20.394 13.6011 20.0377 13.9527L18.1624 15.8281C18.0592 15.9359 17.9983 16.0766 17.9983 16.2266Z" fill="black" fill-opacity="0.2"/>
<path d="M18.8703 3.89607L23.0993 8.12502C23.2774 8.30318 23.2774 8.59387 23.0993 8.77203L12.8598 19.0115L8.50891 19.4944C7.92755 19.5601 7.43527 19.0678 7.50091 18.4864L7.98381 14.1356L18.2233 3.89607C18.4015 3.71791 18.6922 3.71791 18.8703 3.89607ZM26.4655 2.82243L24.1776 0.534479C23.465 -0.17816 22.3069 -0.17816 21.5896 0.534479L19.9299 2.19418C19.7517 2.37234 19.7517 2.66302 19.9299 2.84118L24.1588 7.07013C24.337 7.24829 24.6277 7.24829 24.8058 7.07013L26.4655 5.41043C27.1782 4.6931 27.1782 3.53507 26.4655 2.82243ZM17.9983 16.2266V20.9994H2.99534V5.99648H13.7693C13.9193 5.99648 14.06 5.93553 14.1678 5.83239L16.0432 3.95702C16.3995 3.6007 16.1463 2.9959 15.6447 2.9959H2.24519C1.00276 2.9959 -0.00524902 4.00391 -0.00524902 5.24634V21.7496C-0.00524902 22.992 1.00276 24 2.24519 24H18.7484C19.9908 24 20.9989 22.992 20.9989 21.7496V14.3512C20.9989 13.8496 20.394 13.6011 20.0377 13.9527L18.1624 15.8281C18.0592 15.9359 17.9983 16.0766 17.9983 16.2266Z" fill="black" fill-opacity="0.2"/>
<path d="M18.8703 3.89607L23.0993 8.12502C23.2774 8.30318 23.2774 8.59387 23.0993 8.77203L12.8598 19.0115L8.50891 19.4944C7.92755 19.5601 7.43527 19.0678 7.50091 18.4864L7.98381 14.1356L18.2233 3.89607C18.4015 3.71791 18.6922 3.71791 18.8703 3.89607ZM26.4655 2.82243L24.1776 0.534479C23.465 -0.17816 22.3069 -0.17816 21.5896 0.534479L19.9299 2.19418C19.7517 2.37234 19.7517 2.66302 19.9299 2.84118L24.1588 7.07013C24.337 7.24829 24.6277 7.24829 24.8058 7.07013L26.4655 5.41043C27.1782 4.6931 27.1782 3.53507 26.4655 2.82243ZM17.9983 16.2266V20.9994H2.99534V5.99648H13.7693C13.9193 5.99648 14.06 5.93553 14.1678 5.83239L16.0432 3.95702C16.3995 3.6007 16.1463 2.9959 15.6447 2.9959H2.24519C1.00276 2.9959 -0.00524902 4.00391 -0.00524902 5.24634V21.7496C-0.00524902 22.992 1.00276 24 2.24519 24H18.7484C19.9908 24 20.9989 22.992 20.9989 21.7496V14.3512C20.9989 13.8496 20.394 13.6011 20.0377 13.9527L18.1624 15.8281C18.0592 15.9359 17.9983 16.0766 17.9983 16.2266Z" fill="black" fill-opacity="0.2"/>
<path d="M18.8703 3.89607L23.0993 8.12502C23.2774 8.30318 23.2774 8.59387 23.0993 8.77203L12.8598 19.0115L8.50891 19.4944C7.92755 19.5601 7.43527 19.0678 7.50091 18.4864L7.98381 14.1356L18.2233 3.89607C18.4015 3.71791 18.6922 3.71791 18.8703 3.89607ZM26.4655 2.82243L24.1776 0.534479C23.465 -0.17816 22.3069 -0.17816 21.5896 0.534479L19.9299 2.19418C19.7517 2.37234 19.7517 2.66302 19.9299 2.84118L24.1588 7.07013C24.337 7.24829 24.6277 7.24829 24.8058 7.07013L26.4655 5.41043C27.1782 4.6931 27.1782 3.53507 26.4655 2.82243ZM17.9983 16.2266V20.9994H2.99534V5.99648H13.7693C13.9193 5.99648 14.06 5.93553 14.1678 5.83239L16.0432 3.95702C16.3995 3.6007 16.1463 2.9959 15.6447 2.9959H2.24519C1.00276 2.9959 -0.00524902 4.00391 -0.00524902 5.24634V21.7496C-0.00524902 22.992 1.00276 24 2.24519 24H18.7484C19.9908 24 20.9989 22.992 20.9989 21.7496V14.3512C20.9989 13.8496 20.394 13.6011 20.0377 13.9527L18.1624 15.8281C18.0592 15.9359 17.9983 16.0766 17.9983 16.2266Z" fill="black" fill-opacity="0.2"/>
<path d="M18.8703 3.89607L23.0993 8.12502C23.2774 8.30318 23.2774 8.59387 23.0993 8.77203L12.8598 19.0115L8.50891 19.4944C7.92755 19.5601 7.43527 19.0678 7.50091 18.4864L7.98381 14.1356L18.2233 3.89607C18.4015 3.71791 18.6922 3.71791 18.8703 3.89607ZM26.4655 2.82243L24.1776 0.534479C23.465 -0.17816 22.3069 -0.17816 21.5896 0.534479L19.9299 2.19418C19.7517 2.37234 19.7517 2.66302 19.9299 2.84118L24.1588 7.07013C24.337 7.24829 24.6277 7.24829 24.8058 7.07013L26.4655 5.41043C27.1782 4.6931 27.1782 3.53507 26.4655 2.82243ZM17.9983 16.2266V20.9994H2.99534V5.99648H13.7693C13.9193 5.99648 14.06 5.93553 14.1678 5.83239L16.0432 3.95702C16.3995 3.6007 16.1463 2.9959 15.6447 2.9959H2.24519C1.00276 2.9959 -0.00524902 4.00391 -0.00524902 5.24634V21.7496C-0.00524902 22.992 1.00276 24 2.24519 24H18.7484C19.9908 24 20.9989 22.992 20.9989 21.7496V14.3512C20.9989 13.8496 20.394 13.6011 20.0377 13.9527L18.1624 15.8281C18.0592 15.9359 17.9983 16.0766 17.9983 16.2266Z" fill="black" fill-opacity="0.2"/>
<path d="M18.8703 3.89607L23.0993 8.12502C23.2774 8.30318 23.2774 8.59387 23.0993 8.77203L12.8598 19.0115L8.50891 19.4944C7.92755 19.5601 7.43527 19.0678 7.50091 18.4864L7.98381 14.1356L18.2233 3.89607C18.4015 3.71791 18.6922 3.71791 18.8703 3.89607ZM26.4655 2.82243L24.1776 0.534479C23.465 -0.17816 22.3069 -0.17816 21.5896 0.534479L19.9299 2.19418C19.7517 2.37234 19.7517 2.66302 19.9299 2.84118L24.1588 7.07013C24.337 7.24829 24.6277 7.24829 24.8058 7.07013L26.4655 5.41043C27.1782 4.6931 27.1782 3.53507 26.4655 2.82243ZM17.9983 16.2266V20.9994H2.99534V5.99648H13.7693C13.9193 5.99648 14.06 5.93553 14.1678 5.83239L16.0432 3.95702C16.3995 3.6007 16.1463 2.9959 15.6447 2.9959H2.24519C1.00276 2.9959 -0.00524902 4.00391 -0.00524902 5.24634V21.7496C-0.00524902 22.992 1.00276 24 2.24519 24H18.7484C19.9908 24 20.9989 22.992 20.9989 21.7496V14.3512C20.9989 13.8496 20.394 13.6011 20.0377 13.9527L18.1624 15.8281C18.0592 15.9359 17.9983 16.0766 17.9983 16.2266Z" fill="black" fill-opacity="0.2"/>
<path d="M18.8703 3.89607L23.0993 8.12502C23.2774 8.30318 23.2774 8.59387 23.0993 8.77203L12.8598 19.0115L8.50891 19.4944C7.92755 19.5601 7.43527 19.0678 7.50091 18.4864L7.98381 14.1356L18.2233 3.89607C18.4015 3.71791 18.6922 3.71791 18.8703 3.89607ZM26.4655 2.82243L24.1776 0.534479C23.465 -0.17816 22.3069 -0.17816 21.5896 0.534479L19.9299 2.19418C19.7517 2.37234 19.7517 2.66302 19.9299 2.84118L24.1588 7.07013C24.337 7.24829 24.6277 7.24829 24.8058 7.07013L26.4655 5.41043C27.1782 4.6931 27.1782 3.53507 26.4655 2.82243ZM17.9983 16.2266V20.9994H2.99534V5.99648H13.7693C13.9193 5.99648 14.06 5.93553 14.1678 5.83239L16.0432 3.95702C16.3995 3.6007 16.1463 2.9959 15.6447 2.9959H2.24519C1.00276 2.9959 -0.00524902 4.00391 -0.00524902 5.24634V21.7496C-0.00524902 22.992 1.00276 24 2.24519 24H18.7484C19.9908 24 20.9989 22.992 20.9989 21.7496V14.3512C20.9989 13.8496 20.394 13.6011 20.0377 13.9527L18.1624 15.8281C18.0592 15.9359 17.9983 16.0766 17.9983 16.2266Z" fill="black" fill-opacity="0.2"/>
</svg>
