<svg width="90" height="90" viewBox="0 0 90 90" fill="none" xmlns="http://www.w3.org/2000/svg">
<path d="M12.2477 15.8015C12.2477 12.6763 13.1745 9.62121 14.9108 7.02267C16.6471 4.42412 19.115 2.3988 22.0023 1.20282C24.8897 0.00684369 28.0668 -0.306076 31.132 0.303632C34.1972 0.91334 37.0128 2.41829 39.2227 4.62818C41.4326 6.83806 42.9375 9.65363 43.5472 12.7188C44.1569 15.784 43.844 18.9612 42.648 21.8485C41.452 24.7359 39.4267 27.2038 36.8282 28.9401C34.2296 30.6764 31.1746 31.6031 28.0493 31.6031C25.9742 31.6031 23.9194 31.1944 22.0023 30.4003C20.0852 29.6062 18.3432 28.4423 16.8759 26.9749C15.4086 25.5076 14.2447 23.7657 13.4506 21.8485C12.6564 19.9314 12.2477 17.8766 12.2477 15.8015ZM90 82.5867C90 69.4074 76.6838 58.7234 60.2576 58.7234C43.8314 58.7234 30.5152 69.4074 30.5152 82.5867C30.5152 87.5289 45.3864 90 60.2576 90C75.1289 90 90 87.5289 90 82.5867ZM28.0493 66.0154C29.9858 66.0154 31.921 65.9693 33.8205 65.8804C38.9919 60.5431 45.7361 57.0015 53.0658 55.7742C49.5075 54.426 46.3977 52.1085 44.0884 49.0843C41.779 46.06 40.3624 42.4496 39.9989 38.6619C36.1778 37.2319 32.1292 36.5059 28.0493 36.519C12.5581 36.519 0 46.595 0 59.0239C0 63.6848 14.0246 66.0154 28.0493 66.0154ZM60.2576 53.5106C63.5715 53.5106 66.811 52.5279 69.5664 50.6868C72.3217 48.8457 74.4693 46.2289 75.7375 43.1672C77.0056 40.1056 77.3374 36.7367 76.6909 33.4865C76.0444 30.2363 74.4486 27.2508 72.1053 24.9075C69.762 22.5642 66.7765 20.9685 63.5263 20.322C60.2761 19.6755 56.9072 20.0073 53.8456 21.2754C50.7839 22.5436 48.1671 24.6912 46.326 27.4466C44.4849 30.202 43.5022 33.4414 43.5022 36.7553C43.5022 38.9557 43.9356 41.1345 44.7777 43.1673C45.6197 45.2002 46.8539 47.0473 48.4098 48.6031C49.9657 50.159 51.8128 51.3932 53.8456 52.2352C55.8785 53.0773 58.0573 53.5106 60.2576 53.5106Z" fill="#FFFDF0"/>
</svg>
