<svg width="38" height="49" viewBox="0 0 38 49" fill="none" xmlns="http://www.w3.org/2000/svg">
<path d="M16.5 46.5C16.5 47.8807 17.6193 49 19 49C20.3807 49 21.5 47.8807 21.5 46.5L16.5 46.5ZM20.7678 0.732231C19.7915 -0.244076 18.2085 -0.244076 17.2322 0.732231L1.32233 16.6421C0.346018 17.6184 0.346019 19.2014 1.32233 20.1777C2.29864 21.154 3.88155 21.154 4.85786 20.1777L19 6.03553L33.1421 20.1777C34.1184 21.154 35.7014 21.154 36.6777 20.1777C37.654 19.2014 37.654 17.6184 36.6777 16.6421L20.7678 0.732231ZM21.5 46.5L21.5 2.5L16.5 2.5L16.5 46.5L21.5 46.5Z" fill="#FFFDF0"/>
</svg>
