<?xml version="1.0" encoding="UTF-8"?>
<svg id="Layer_2" data-name="Layer 2" xmlns="http://www.w3.org/2000/svg" viewBox="0 0 59.01 59.01">
  <defs>
    <style>
      .cls-1 {
        fill: #fffdf0;
      }

      .cls-2 {
        fill: #376e27;
      }
    </style>
  </defs>
  <g id="Layer_3" data-name="Layer 3">
    <g>
      <rect class="cls-2" x="0" y="0" width="59.01" height="59.01" rx="29.5" ry="29.5"/>
      <path class="cls-1" d="M41.06,22.72l-10.49-10.49c-.14-.14-.31-.25-.49-.33,0,0-.02,0-.02,0-.17-.07-.35-.11-.55-.11s-.38,.04-.55,.11c0,0-.02,0-.02,0-.19,.08-.35,.19-.49,.33l-10.49,10.49c-.59,.59-.59,1.54,0,2.12s1.54,.59,2.12,0l7.93-7.93v28.82c0,.83,.67,1.5,1.5,1.5s1.5-.67,1.5-1.5V16.91l7.93,7.93c.29,.29,.68,.44,1.06,.44s.77-.15,1.06-.44c.59-.59,.59-1.54,0-2.12Z"/>
    </g>
  </g>
</svg>