<svg width="50" height="49" viewBox="0 0 50 49" fill="none" xmlns="http://www.w3.org/2000/svg">
<path d="M32.4199 31.267C32.0701 31.3809 31.7743 31.6193 31.5889 31.937L29.4269 35.646C29.242 35.9635 29.1801 36.3379 29.2529 36.698C29.4461 37.7346 29.8984 38.7054 30.5679 39.52V40.004C29.9557 40.7136 29.5241 41.5607 29.3099 42.473H1.00086C0.857044 42.4731 0.714889 42.4422 0.584097 42.3824C0.453306 42.3226 0.336956 42.2353 0.242984 42.1264C0.149013 42.0175 0.0796309 41.8897 0.0395726 41.7515C-0.000485707 41.6134 -0.010278 41.4683 0.0108637 41.326C0.534782 37.1836 2.35483 33.3128 5.21086 30.267C8.59186 26.905 13.4209 25.267 19.5769 25.375C26.0999 25.265 31.0939 27.12 34.4959 30.915C33.7906 30.9324 33.0914 31.0509 32.4199 31.267ZM48.9679 42.236C49.1051 42.4779 49.219 42.7324 49.3079 42.996L47.7779 45.616C47.5084 45.671 47.2339 45.6979 46.9589 45.696C46.7248 45.5214 46.4448 45.4189 46.1533 45.4012C45.8618 45.3834 45.5714 45.4511 45.3179 45.596L43.5379 46.616C43.2845 46.7602 43.0786 46.975 42.9454 47.2343C42.8123 47.4936 42.7575 47.7861 42.7879 48.076C42.6515 48.3179 42.487 48.5427 42.2979 48.746L39.2689 48.736C39.0871 48.5253 38.926 48.2976 38.7879 48.056C38.8222 47.7665 38.7714 47.4734 38.6418 47.2123C38.5121 46.9512 38.3092 46.7336 38.0579 46.586L36.2779 45.556C36.0264 45.4087 35.7375 45.3378 35.4465 45.352C35.1554 45.3662 34.8748 45.4649 34.6389 45.636C34.3631 45.6382 34.088 45.6114 33.8179 45.556L32.3079 42.926C32.3995 42.6619 32.5167 42.4073 32.6579 42.166C32.9261 42.0516 33.1546 41.8606 33.3147 41.6169C33.4748 41.3732 33.5594 41.0876 33.5579 40.796L33.5679 38.746C33.5725 38.4538 33.4904 38.1668 33.332 37.9211C33.1736 37.6755 32.946 37.4824 32.6779 37.366C32.5408 37.1275 32.4269 36.8763 32.3379 36.616L33.8679 33.996C34.1369 33.936 34.4123 33.9091 34.6879 33.916C34.922 34.0906 35.2019 34.1931 35.4934 34.2108C35.7849 34.2286 36.0753 34.1609 36.3289 34.016L38.1179 32.996C38.3688 32.8499 38.5722 32.6344 38.7035 32.3753C38.8348 32.1163 38.8884 31.8248 38.8579 31.536C38.9965 31.2925 39.1608 31.0646 39.3479 30.856L42.3779 30.876C42.5618 31.0812 42.7228 31.3058 42.8579 31.546C42.8236 31.8355 42.8743 32.1286 43.004 32.3897C43.1336 32.6508 43.3365 32.8684 43.5879 33.016L45.3679 34.056C45.6204 34.2021 45.91 34.2714 46.2013 34.2554C46.4926 34.2394 46.7729 34.1389 47.0079 33.966C47.2841 33.9634 47.5597 33.9936 47.8289 34.056L49.3379 36.686C49.2486 36.9479 49.1312 37.1994 48.9879 37.436C48.7204 37.5515 48.4927 37.7428 48.3327 37.9862C48.1728 38.2297 48.0876 38.5147 48.0879 38.806L48.0789 40.866C48.0742 41.1568 48.1562 41.4425 48.3146 41.6865C48.4729 41.9305 48.7003 42.1218 48.9679 42.236ZM42.1779 37.476C41.718 37.2082 41.189 37.0827 40.6578 37.1155C40.1266 37.1484 39.617 37.3379 39.1936 37.6603C38.7701 37.9827 38.4518 38.4234 38.2788 38.9268C38.1058 39.4301 38.0859 39.9734 38.2217 40.488C38.3575 41.0026 38.6428 41.4654 39.0416 41.8178C39.4404 42.1702 39.9347 42.3965 40.4621 42.468C40.9895 42.5395 41.5262 42.4531 42.0045 42.2195C42.4827 41.986 42.881 41.6159 43.1489 41.156C43.5079 40.5385 43.607 39.8037 43.4246 39.1131C43.2421 38.4225 42.793 37.8326 42.1759 37.473L42.1779 37.476ZM19.5529 21.326C21.6618 21.3258 23.7232 20.7003 25.4766 19.5285C27.23 18.3567 28.5966 16.6913 29.4035 14.7429C30.2104 12.7944 30.4214 10.6505 30.0099 8.58214C29.5983 6.51379 28.5827 4.61392 27.0914 3.12277C25.6001 1.63162 23.7001 0.616171 21.6317 0.204818C19.5634 -0.206535 17.4194 0.00468659 15.4711 0.811773C13.5227 1.61886 11.8575 2.98556 10.6858 4.73906C9.51421 6.49256 8.88886 8.55411 8.88886 10.663C8.89204 13.4902 10.0166 16.2007 12.0158 18.1997C14.0151 20.1988 16.7257 21.3231 19.5529 21.326Z" fill="#FFFDF0"/>
</svg>
