<?xml version="1.0" encoding="UTF-8"?>
<svg id="Layer_2" data-name="Layer 2" xmlns="http://www.w3.org/2000/svg" viewBox="0 0 200.08 100">
  <defs>
    <style>
      .cls-1 {
        fill: #fffdf0;
      }

      .cls-2 {
        fill: none;
      }
    </style>
  </defs>
  <g id="Layer_3" data-name="Layer 3">
    <g>
      <rect class="cls-2" x="50" y="-50" width="100" height="200" transform="translate(50 150) rotate(-90)"/>
      <g>
        <path class="cls-1" d="M10.68,73.73c-3.03,0-5.27-.79-6.74-2.36s-2.2-3.8-2.2-6.68c0-3.05,.83-5.32,2.49-6.81,1.66-1.49,3.89-2.23,6.7-2.23,1.15,0,2.1,.08,2.86,.24,.76,.16,1.49,.41,2.2,.75v2.38c-1.32-.63-2.82-.95-4.5-.95-2.15,0-3.81,.51-4.98,1.52-1.17,1.01-1.76,2.72-1.76,5.11s.51,3.97,1.54,5.04c1.02,1.06,2.72,1.59,5.09,1.59,1.68,0,3.23-.32,4.65-.95v2.42c-.76,.32-1.57,.56-2.44,.71-.87,.16-1.84,.24-2.91,.24Z"/>
        <path class="cls-1" d="M24.78,73.73c-1.1,0-2.11-.2-3.04-.59-.93-.39-1.67-.97-2.23-1.74-.56-.77-.84-1.74-.84-2.91,0-1.59,.52-2.89,1.57-3.9,1.05-1.01,2.76-1.52,5.13-1.52h6.04v-1.06c0-.95-.13-1.71-.38-2.27-.26-.56-.74-.96-1.45-1.21-.71-.24-1.75-.37-3.11-.37-1.05,0-2.06,.09-3.04,.26-.98,.17-1.89,.4-2.75,.7v-2.49c.78-.29,1.7-.53,2.76-.71s2.2-.27,3.42-.27c2.47,0,4.31,.5,5.55,1.5,1.23,1,1.85,2.62,1.85,4.87v11.35h-2.53l-.22-1.98c-.76,.78-1.67,1.37-2.75,1.76-1.07,.39-2.4,.59-3.99,.59Zm.77-2.45c1.27,0,2.39-.23,3.37-.68,.98-.45,1.81-1.07,2.49-1.85v-3.37h-5.97c-1.37,0-2.34,.26-2.93,.77s-.88,1.29-.88,2.34,.35,1.78,1.06,2.18c.71,.4,1.66,.6,2.86,.6Z"/>
        <path class="cls-1" d="M40.34,73.36v-14.98h-2.6v-2.38h2.6v-2.53c0-1.66,.46-2.97,1.37-3.94,.92-.96,2.26-1.45,4.05-1.45,.63,0,1.21,.05,1.74,.15,.52,.1,1.01,.23,1.45,.4v2.27c-.76-.27-1.56-.4-2.42-.4-1.25,0-2.09,.23-2.53,.68-.44,.45-.66,1.21-.66,2.29v2.53h4.69l-.15,2.38h-4.54v14.98h-3Z"/>
        <path class="cls-1" d="M59.42,73.73c-3.1,0-5.42-.74-6.96-2.23-1.54-1.49-2.31-3.78-2.31-6.88,0-2.78,.67-4.97,2-6.57,1.33-1.6,3.44-2.4,6.32-2.4,1.71,0,3.12,.31,4.23,.93,1.11,.62,1.94,1.48,2.49,2.56,.55,1.09,.82,2.31,.82,3.68v3.26h-12.85c.1,1.32,.38,2.36,.86,3.11,.48,.76,1.2,1.3,2.16,1.63,.96,.33,2.24,.49,3.83,.49,1.78,0,3.42-.3,4.91-.92v2.34c-.76,.32-1.61,.56-2.54,.73-.94,.17-1.92,.26-2.95,.26Zm-6.26-9.81h10.18v-1.43c0-1.42-.37-2.51-1.12-3.28-.75-.77-1.97-1.15-3.68-1.15-2.08,0-3.49,.49-4.25,1.46-.76,.98-1.14,2.44-1.14,4.39Z"/>
      </g>
      <g>
        <path class="cls-1" d="M127.96,75.2c-1.01,0-1.83-.82-1.83-1.83v-13.87c0-4.71-3.83-8.55-8.55-8.55s-8.55,3.83-8.55,8.55v13.87c0,1.01-.82,1.83-1.83,1.83s-1.83-.82-1.83-1.83v-13.87c0-6.73,5.48-12.21,12.21-12.21s12.21,5.48,12.21,12.21v13.87c0,1.01-.82,1.83-1.83,1.83Z"/>
        <path class="cls-1" d="M141.98,76.22c-6.73,0-12.21-5.48-12.21-12.21v-3.49c0-6.73,5.48-12.21,12.21-12.21s12.21,5.48,12.21,12.21v3.49c0,6.73-5.48,12.21-12.21,12.21Zm0-24.25c-4.71,0-8.55,3.83-8.55,8.55v3.49c0,4.71,3.83,8.55,8.55,8.55s8.55-3.83,8.55-8.55v-3.49c0-4.71-3.83-8.55-8.55-8.55Z"/>
        <path class="cls-1" d="M166.4,76.22c-6.74,0-12.21-5.48-12.21-12.21v-3.49c0-6.73,5.48-12.21,12.21-12.21s12.21,5.48,12.21,12.21v3.49c0,6.73-5.48,12.21-12.21,12.21Zm0-24.25c-4.71,0-8.55,3.83-8.55,8.55v3.49c0,4.71,3.83,8.55,8.55,8.55s8.55-3.83,8.55-8.55v-3.49c0-4.71-3.83-8.55-8.55-8.55Z"/>
        <g>
          <path class="cls-1" d="M180.43,75.42c-1.01,0-1.83-.82-1.83-1.83V24.96c0-1.01,.82-1.83,1.83-1.83s1.83,.82,1.83,1.83v48.62c0,1.01-.82,1.83-1.83,1.83Z"/>
          <path class="cls-1" d="M198.25,75.42c-1.01,0-1.83-.82-1.83-1.83v-9.76c0-3.16-2.46-5.87-5.6-6.17-1.01-.1-1.75-.99-1.65-2,.1-1.01,1.01-1.75,2-1.65,5,.48,8.92,4.8,8.92,9.82v9.76c0,1.01-.82,1.83-1.83,1.83Z"/>
          <path class="cls-1" d="M180.78,70.62c-.4,0-.8-.13-1.13-.39-.8-.63-.93-1.78-.31-2.58l17.47-22.17c.63-.8,1.78-.93,2.58-.31,.8,.63,.93,1.78,.31,2.58l-17.47,22.17c-.36,.46-.9,.7-1.44,.7Z"/>
        </g>
        <g>
          <path class="cls-1" d="M83.31,66.26c0-4.04,3.3-7.34,7.34-7.34s7.34,3.3,7.34,7.34v7.1h9.2l-16.55-48.4-16.55,48.4h9.2v-7.1Z"/>
          <path class="cls-1" d="M107.2,75.2h-9.2c-1.01,0-1.83-.82-1.83-1.83v-7.1c0-3.04-2.47-5.51-5.51-5.51s-5.51,2.47-5.51,5.51v7.1c0,1.01-.82,1.83-1.83,1.83h-9.2c-.59,0-1.15-.29-1.49-.77-.34-.48-.43-1.1-.24-1.66l16.55-48.4c.25-.74,.95-1.24,1.74-1.24s1.48,.5,1.74,1.24l16.55,48.4c.19,.56,.1,1.18-.24,1.66-.34,.48-.9,.77-1.49,.77Zm-7.37-3.67h4.81l-13.98-40.9-13.98,40.9h4.81v-5.27c0-5.06,4.12-9.18,9.18-9.18s9.18,4.12,9.18,9.18v5.27Z"/>
        </g>
      </g>
    </g>
  </g>
</svg>