<?xml version="1.0" encoding="UTF-8"?>
<svg id="Layer_2" data-name="Layer 2" xmlns="http://www.w3.org/2000/svg" viewBox="0 0 196.67 100.58">
  <defs>
    <style>
      .cls-1 {
        fill: #fffdf0;
      }
    </style>
  </defs>
  <g id="Layer_3" data-name="Layer 3">
    <g>
      <g>
        <path class="cls-1" d="M63.56,37.72c-4.45,0-7.76-1.16-9.91-3.48-2.16-2.32-3.23-5.59-3.23-9.83,0-4.49,1.22-7.83,3.66-10.02,2.44-2.19,5.73-3.29,9.86-3.29,1.69,0,3.09,.12,4.2,.35,1.11,.23,2.19,.6,3.23,1.1v3.5c-1.94-.93-4.15-1.4-6.63-1.4-3.16,0-5.6,.75-7.33,2.24-1.72,1.49-2.59,4-2.59,7.52s.75,5.85,2.26,7.41c1.51,1.56,4.01,2.34,7.49,2.34,2.48,0,4.76-.47,6.84-1.4v3.56c-1.11,.47-2.31,.82-3.58,1.05-1.28,.23-2.7,.35-4.28,.35Z"/>
        <path class="cls-1" d="M84.31,37.72c-1.62,0-3.11-.29-4.47-.86-1.36-.57-2.46-1.43-3.29-2.56-.83-1.13-1.24-2.56-1.24-4.28,0-2.34,.77-4.25,2.32-5.74,1.54-1.49,4.06-2.24,7.54-2.24h8.89v-1.56c0-1.4-.19-2.51-.57-3.34-.38-.83-1.09-1.42-2.13-1.78-1.04-.36-2.57-.54-4.58-.54-1.54,0-3.04,.13-4.47,.38-1.44,.25-2.78,.59-4.04,1.02v-3.66c1.15-.43,2.51-.78,4.07-1.05,1.56-.27,3.24-.4,5.04-.4,3.63,0,6.35,.74,8.16,2.21,1.81,1.47,2.72,3.86,2.72,7.17v16.7h-3.72l-.32-2.91c-1.11,1.15-2.46,2.01-4.04,2.59-1.58,.57-3.54,.86-5.87,.86Zm1.13-3.61c1.87,0,3.52-.33,4.96-1,1.44-.66,2.66-1.57,3.66-2.72v-4.96h-8.78c-2.01,0-3.45,.38-4.31,1.13-.86,.75-1.29,1.9-1.29,3.45s.52,2.61,1.56,3.21c1.04,.59,2.44,.89,4.2,.89Z"/>
        <path class="cls-1" d="M107.21,37.18V15.14h-3.83v-3.5h3.83v-3.72c0-2.44,.67-4.37,2.02-5.79,1.35-1.42,3.33-2.13,5.95-2.13,.93,0,1.79,.07,2.56,.22,.77,.14,1.48,.34,2.13,.59v3.34c-1.11-.39-2.3-.59-3.56-.59-1.83,0-3.07,.33-3.72,1-.65,.67-.97,1.79-.97,3.37v3.72h6.9l-.22,3.5h-6.68v22.04h-4.42Z"/>
        <path class="cls-1" d="M135.28,37.72c-4.56,0-7.97-1.1-10.24-3.29-2.26-2.19-3.4-5.57-3.4-10.13,0-4.09,.98-7.32,2.94-9.67,1.96-2.35,5.06-3.53,9.3-3.53,2.51,0,4.59,.46,6.22,1.37,1.63,.92,2.86,2.17,3.66,3.77,.81,1.6,1.21,3.4,1.21,5.42v4.8h-18.91c.14,1.94,.57,3.47,1.27,4.58,.7,1.11,1.76,1.91,3.18,2.4,1.42,.48,3.3,.73,5.63,.73,2.62,0,5.03-.45,7.22-1.35v3.45c-1.11,.47-2.36,.83-3.74,1.08-1.38,.25-2.83,.38-4.34,.38Zm-9.21-14.44h14.98v-2.1c0-2.08-.55-3.69-1.64-4.82-1.1-1.13-2.9-1.7-5.42-1.7-3.05,0-5.14,.72-6.25,2.16-1.11,1.44-1.67,3.59-1.67,6.47Z"/>
      </g>
      <g>
        <path class="cls-1" d="M85.69,99.01c-1.56,0-2.82-1.26-2.82-2.82v-21.34c0-7.25-5.9-13.15-13.15-13.15s-13.15,5.9-13.15,13.15v21.34c0,1.56-1.26,2.82-2.82,2.82s-2.82-1.26-2.82-2.82v-21.34c0-10.36,8.43-18.79,18.79-18.79s18.79,8.43,18.79,18.79v21.34c0,1.56-1.26,2.82-2.82,2.82Z"/>
        <path class="cls-1" d="M107.26,100.58c-10.36,0-18.79-8.43-18.79-18.79v-5.37c0-10.36,8.43-18.79,18.79-18.79s18.79,8.43,18.79,18.79v5.37c0,10.36-8.43,18.79-18.79,18.79Zm0-37.32c-7.25,0-13.15,5.9-13.15,13.15v5.37c0,7.25,5.9,13.15,13.15,13.15s13.15-5.9,13.15-13.15v-5.37c0-7.25-5.9-13.15-13.15-13.15Z"/>
        <path class="cls-1" d="M144.84,100.58c-10.36,0-18.79-8.43-18.79-18.79v-5.37c0-10.36,8.43-18.79,18.79-18.79s18.79,8.43,18.79,18.79v5.37c0,10.36-8.43,18.79-18.79,18.79Zm0-37.32c-7.25,0-13.15,5.9-13.15,13.15v5.37c0,7.25,5.9,13.15,13.15,13.15s13.15-5.9,13.15-13.15v-5.37c0-7.25-5.9-13.15-13.15-13.15Z"/>
        <g>
          <path class="cls-1" d="M166.43,99.35c-1.56,0-2.82-1.26-2.82-2.82V21.71c0-1.56,1.26-2.82,2.82-2.82s2.82,1.26,2.82,2.82V96.53c0,1.56-1.26,2.82-2.82,2.82Z"/>
          <path class="cls-1" d="M193.84,99.35c-1.56,0-2.82-1.26-2.82-2.82v-15.02c0-4.86-3.79-9.03-8.62-9.5-1.55-.15-2.69-1.53-2.54-3.08,.15-1.55,1.55-2.69,3.08-2.54,7.7,.74,13.72,7.38,13.72,15.11v15.02c0,1.56-1.26,2.82-2.82,2.82Z"/>
          <path class="cls-1" d="M166.97,91.97c-.61,0-1.23-.2-1.74-.61-1.22-.96-1.44-2.74-.47-3.96l26.88-34.12c.97-1.22,2.74-1.44,3.96-.47,1.22,.96,1.44,2.74,.47,3.96l-26.88,34.12c-.56,.71-1.38,1.08-2.22,1.08Z"/>
        </g>
        <g>
          <path class="cls-1" d="M16.98,85.25c0-6.21,5.08-11.3,11.3-11.3s11.3,5.08,11.3,11.3v10.93h14.16L28.28,21.71,2.82,96.19h14.16v-10.93Z"/>
          <path class="cls-1" d="M53.75,99.01h-14.16c-1.56,0-2.82-1.26-2.82-2.82v-10.93c0-4.67-3.8-8.48-8.48-8.48s-8.48,3.8-8.48,8.48v10.93c0,1.56-1.26,2.82-2.82,2.82H2.82c-.91,0-1.77-.44-2.3-1.18-.53-.74-.67-1.69-.37-2.55L25.61,20.8c.39-1.14,1.46-1.91,2.67-1.91s2.28,.77,2.67,1.91l25.46,74.47c.3,.86,.16,1.81-.37,2.55-.53,.74-1.39,1.18-2.3,1.18Zm-11.34-5.64h7.39L28.28,30.43,6.77,93.36h7.39v-8.11c0-7.79,6.33-14.12,14.12-14.12s14.12,6.33,14.12,14.12v8.11Z"/>
        </g>
      </g>
    </g>
  </g>
</svg>