<svg width="396" height="191" viewBox="0 0 396 191" fill="none" xmlns="http://www.w3.org/2000/svg">
<path d="M132.621 76.0713C123.654 76.0713 116.997 73.7433 112.651 69.0699C108.306 64.3966 106.15 57.8091 106.15 49.2729C106.15 40.2367 108.599 33.5112 113.531 29.0966C118.446 24.6819 125.068 22.4746 133.38 22.4746C136.777 22.4746 139.605 22.716 141.847 23.1816C144.089 23.6472 146.261 24.3888 148.348 25.4062V32.4593C144.451 30.5796 140.002 29.6312 135.001 29.6312C128.637 29.6312 123.722 31.1315 120.239 34.1321C116.773 37.1326 115.031 42.1854 115.031 49.2729C115.031 56.3605 116.549 61.0511 119.584 64.1897C122.619 67.3282 127.654 68.9147 134.673 68.9147C139.657 68.9147 144.261 67.9835 148.451 66.0866V73.2432C146.21 74.1916 143.795 74.8814 141.243 75.3643C138.674 75.8299 135.794 76.0713 132.621 76.0713Z" fill="#1F1813"/>
<path d="M132.621 76.0713C123.654 76.0713 116.997 73.7433 112.651 69.0699C108.306 64.3966 106.15 57.8091 106.15 49.2729C106.15 40.2367 108.599 33.5112 113.531 29.0966C118.446 24.6819 125.068 22.4746 133.38 22.4746C136.777 22.4746 139.605 22.716 141.847 23.1816C144.089 23.6472 146.261 24.3888 148.348 25.4062V32.4593C144.451 30.5796 140.002 29.6312 135.001 29.6312C128.637 29.6312 123.722 31.1315 120.239 34.1321C116.773 37.1326 115.031 42.1854 115.031 49.2729C115.031 56.3605 116.549 61.0511 119.584 64.1897C122.619 67.3282 127.654 68.9147 134.673 68.9147C139.657 68.9147 144.261 67.9835 148.451 66.0866V73.2432C146.21 74.1916 143.795 74.8814 141.243 75.3643C138.674 75.8299 135.794 76.0713 132.621 76.0713Z" fill="black" fill-opacity="0.2"/>
<path d="M132.621 76.0713C123.654 76.0713 116.997 73.7433 112.651 69.0699C108.306 64.3966 106.15 57.8091 106.15 49.2729C106.15 40.2367 108.599 33.5112 113.531 29.0966C118.446 24.6819 125.068 22.4746 133.38 22.4746C136.777 22.4746 139.605 22.716 141.847 23.1816C144.089 23.6472 146.261 24.3888 148.348 25.4062V32.4593C144.451 30.5796 140.002 29.6312 135.001 29.6312C128.637 29.6312 123.722 31.1315 120.239 34.1321C116.773 37.1326 115.031 42.1854 115.031 49.2729C115.031 56.3605 116.549 61.0511 119.584 64.1897C122.619 67.3282 127.654 68.9147 134.673 68.9147C139.657 68.9147 144.261 67.9835 148.451 66.0866V73.2432C146.21 74.1916 143.795 74.8814 141.243 75.3643C138.674 75.8299 135.794 76.0713 132.621 76.0713Z" fill="black" fill-opacity="0.2"/>
<path d="M132.621 76.0713C123.654 76.0713 116.997 73.7433 112.651 69.0699C108.306 64.3966 106.15 57.8091 106.15 49.2729C106.15 40.2367 108.599 33.5112 113.531 29.0966C118.446 24.6819 125.068 22.4746 133.38 22.4746C136.777 22.4746 139.605 22.716 141.847 23.1816C144.089 23.6472 146.261 24.3888 148.348 25.4062V32.4593C144.451 30.5796 140.002 29.6312 135.001 29.6312C128.637 29.6312 123.722 31.1315 120.239 34.1321C116.773 37.1326 115.031 42.1854 115.031 49.2729C115.031 56.3605 116.549 61.0511 119.584 64.1897C122.619 67.3282 127.654 68.9147 134.673 68.9147C139.657 68.9147 144.261 67.9835 148.451 66.0866V73.2432C146.21 74.1916 143.795 74.8814 141.243 75.3643C138.674 75.8299 135.794 76.0713 132.621 76.0713Z" fill="black" fill-opacity="0.2"/>
<path d="M132.621 76.0713C123.654 76.0713 116.997 73.7433 112.651 69.0699C108.306 64.3966 106.15 57.8091 106.15 49.2729C106.15 40.2367 108.599 33.5112 113.531 29.0966C118.446 24.6819 125.068 22.4746 133.38 22.4746C136.777 22.4746 139.605 22.716 141.847 23.1816C144.089 23.6472 146.261 24.3888 148.348 25.4062V32.4593C144.451 30.5796 140.002 29.6312 135.001 29.6312C128.637 29.6312 123.722 31.1315 120.239 34.1321C116.773 37.1326 115.031 42.1854 115.031 49.2729C115.031 56.3605 116.549 61.0511 119.584 64.1897C122.619 67.3282 127.654 68.9147 134.673 68.9147C139.657 68.9147 144.261 67.9835 148.451 66.0866V73.2432C146.21 74.1916 143.795 74.8814 141.243 75.3643C138.674 75.8299 135.794 76.0713 132.621 76.0713Z" fill="black" fill-opacity="0.2"/>
<path d="M132.621 76.0713C123.654 76.0713 116.997 73.7433 112.651 69.0699C108.306 64.3966 106.15 57.8091 106.15 49.2729C106.15 40.2367 108.599 33.5112 113.531 29.0966C118.446 24.6819 125.068 22.4746 133.38 22.4746C136.777 22.4746 139.605 22.716 141.847 23.1816C144.089 23.6472 146.261 24.3888 148.348 25.4062V32.4593C144.451 30.5796 140.002 29.6312 135.001 29.6312C128.637 29.6312 123.722 31.1315 120.239 34.1321C116.773 37.1326 115.031 42.1854 115.031 49.2729C115.031 56.3605 116.549 61.0511 119.584 64.1897C122.619 67.3282 127.654 68.9147 134.673 68.9147C139.657 68.9147 144.261 67.9835 148.451 66.0866V73.2432C146.21 74.1916 143.795 74.8814 141.243 75.3643C138.674 75.8299 135.794 76.0713 132.621 76.0713Z" fill="black" fill-opacity="0.2"/>
<path d="M132.621 76.0713C123.654 76.0713 116.997 73.7433 112.651 69.0699C108.306 64.3966 106.15 57.8091 106.15 49.2729C106.15 40.2367 108.599 33.5112 113.531 29.0966C118.446 24.6819 125.068 22.4746 133.38 22.4746C136.777 22.4746 139.605 22.716 141.847 23.1816C144.089 23.6472 146.261 24.3888 148.348 25.4062V32.4593C144.451 30.5796 140.002 29.6312 135.001 29.6312C128.637 29.6312 123.722 31.1315 120.239 34.1321C116.773 37.1326 115.031 42.1854 115.031 49.2729C115.031 56.3605 116.549 61.0511 119.584 64.1897C122.619 67.3282 127.654 68.9147 134.673 68.9147C139.657 68.9147 144.261 67.9835 148.451 66.0866V73.2432C146.21 74.1916 143.795 74.8814 141.243 75.3643C138.674 75.8299 135.794 76.0713 132.621 76.0713Z" fill="black" fill-opacity="0.2"/>
<path d="M132.621 76.0713C123.654 76.0713 116.997 73.7433 112.651 69.0699C108.306 64.3966 106.15 57.8091 106.15 49.2729C106.15 40.2367 108.599 33.5112 113.531 29.0966C118.446 24.6819 125.068 22.4746 133.38 22.4746C136.777 22.4746 139.605 22.716 141.847 23.1816C144.089 23.6472 146.261 24.3888 148.348 25.4062V32.4593C144.451 30.5796 140.002 29.6312 135.001 29.6312C128.637 29.6312 123.722 31.1315 120.239 34.1321C116.773 37.1326 115.031 42.1854 115.031 49.2729C115.031 56.3605 116.549 61.0511 119.584 64.1897C122.619 67.3282 127.654 68.9147 134.673 68.9147C139.657 68.9147 144.261 67.9835 148.451 66.0866V73.2432C146.21 74.1916 143.795 74.8814 141.243 75.3643C138.674 75.8299 135.794 76.0713 132.621 76.0713Z" fill="black" fill-opacity="0.2"/>
<path d="M132.621 76.0713C123.654 76.0713 116.997 73.7433 112.651 69.0699C108.306 64.3966 106.15 57.8091 106.15 49.2729C106.15 40.2367 108.599 33.5112 113.531 29.0966C118.446 24.6819 125.068 22.4746 133.38 22.4746C136.777 22.4746 139.605 22.716 141.847 23.1816C144.089 23.6472 146.261 24.3888 148.348 25.4062V32.4593C144.451 30.5796 140.002 29.6312 135.001 29.6312C128.637 29.6312 123.722 31.1315 120.239 34.1321C116.773 37.1326 115.031 42.1854 115.031 49.2729C115.031 56.3605 116.549 61.0511 119.584 64.1897C122.619 67.3282 127.654 68.9147 134.673 68.9147C139.657 68.9147 144.261 67.9835 148.451 66.0866V73.2432C146.21 74.1916 143.795 74.8814 141.243 75.3643C138.674 75.8299 135.794 76.0713 132.621 76.0713Z" fill="black" fill-opacity="0.2"/>
<path d="M174.388 76.0713C171.128 76.0713 168.128 75.485 165.386 74.3296C162.644 73.1742 160.437 71.4497 158.764 69.1734C157.108 66.8971 156.263 64.0172 156.263 60.551C156.263 55.8432 157.815 51.9976 160.937 48.997C164.041 45.9965 169.111 44.4962 176.129 44.4962H194.029V41.3576C194.029 38.5295 193.65 36.2877 192.891 34.6322C192.132 32.9767 190.701 31.7695 188.597 31.0452C186.493 30.321 183.424 29.9588 179.371 29.9588C176.267 29.9588 173.249 30.2175 170.37 30.7176C167.472 31.2177 164.765 31.9075 162.23 32.787V25.4062C164.541 24.544 167.283 23.8369 170.421 23.2851C173.56 22.7505 176.94 22.4746 180.561 22.4746C187.873 22.4746 193.34 23.9576 196.995 26.9237C200.651 29.8898 202.479 34.7011 202.479 41.3576V74.9849H194.995L194.34 69.1217C192.098 71.4325 189.391 73.1742 186.2 74.3296C183.01 75.485 179.078 76.0713 174.37 76.0713H174.388ZM176.664 68.8113C180.423 68.8113 183.752 68.1387 186.649 66.8109C189.546 65.4658 191.995 63.6551 194.029 61.327V51.3423H176.336C172.284 51.3423 169.387 52.1011 167.662 53.6186C165.938 55.1362 165.058 57.447 165.058 60.5683C165.058 63.6896 166.11 65.8279 168.197 67.0178C170.301 68.2077 173.111 68.8113 176.664 68.8113Z" fill="#1F1813"/>
<path d="M174.388 76.0713C171.128 76.0713 168.128 75.485 165.386 74.3296C162.644 73.1742 160.437 71.4497 158.764 69.1734C157.108 66.8971 156.263 64.0172 156.263 60.551C156.263 55.8432 157.815 51.9976 160.937 48.997C164.041 45.9965 169.111 44.4962 176.129 44.4962H194.029V41.3576C194.029 38.5295 193.65 36.2877 192.891 34.6322C192.132 32.9767 190.701 31.7695 188.597 31.0452C186.493 30.321 183.424 29.9588 179.371 29.9588C176.267 29.9588 173.249 30.2175 170.37 30.7176C167.472 31.2177 164.765 31.9075 162.23 32.787V25.4062C164.541 24.544 167.283 23.8369 170.421 23.2851C173.56 22.7505 176.94 22.4746 180.561 22.4746C187.873 22.4746 193.34 23.9576 196.995 26.9237C200.651 29.8898 202.479 34.7011 202.479 41.3576V74.9849H194.995L194.34 69.1217C192.098 71.4325 189.391 73.1742 186.2 74.3296C183.01 75.485 179.078 76.0713 174.37 76.0713H174.388ZM176.664 68.8113C180.423 68.8113 183.752 68.1387 186.649 66.8109C189.546 65.4658 191.995 63.6551 194.029 61.327V51.3423H176.336C172.284 51.3423 169.387 52.1011 167.662 53.6186C165.938 55.1362 165.058 57.447 165.058 60.5683C165.058 63.6896 166.11 65.8279 168.197 67.0178C170.301 68.2077 173.111 68.8113 176.664 68.8113Z" fill="black" fill-opacity="0.2"/>
<path d="M174.388 76.0713C171.128 76.0713 168.128 75.485 165.386 74.3296C162.644 73.1742 160.437 71.4497 158.764 69.1734C157.108 66.8971 156.263 64.0172 156.263 60.551C156.263 55.8432 157.815 51.9976 160.937 48.997C164.041 45.9965 169.111 44.4962 176.129 44.4962H194.029V41.3576C194.029 38.5295 193.65 36.2877 192.891 34.6322C192.132 32.9767 190.701 31.7695 188.597 31.0452C186.493 30.321 183.424 29.9588 179.371 29.9588C176.267 29.9588 173.249 30.2175 170.37 30.7176C167.472 31.2177 164.765 31.9075 162.23 32.787V25.4062C164.541 24.544 167.283 23.8369 170.421 23.2851C173.56 22.7505 176.94 22.4746 180.561 22.4746C187.873 22.4746 193.34 23.9576 196.995 26.9237C200.651 29.8898 202.479 34.7011 202.479 41.3576V74.9849H194.995L194.34 69.1217C192.098 71.4325 189.391 73.1742 186.2 74.3296C183.01 75.485 179.078 76.0713 174.37 76.0713H174.388ZM176.664 68.8113C180.423 68.8113 183.752 68.1387 186.649 66.8109C189.546 65.4658 191.995 63.6551 194.029 61.327V51.3423H176.336C172.284 51.3423 169.387 52.1011 167.662 53.6186C165.938 55.1362 165.058 57.447 165.058 60.5683C165.058 63.6896 166.11 65.8279 168.197 67.0178C170.301 68.2077 173.111 68.8113 176.664 68.8113Z" fill="black" fill-opacity="0.2"/>
<path d="M174.388 76.0713C171.128 76.0713 168.128 75.485 165.386 74.3296C162.644 73.1742 160.437 71.4497 158.764 69.1734C157.108 66.8971 156.263 64.0172 156.263 60.551C156.263 55.8432 157.815 51.9976 160.937 48.997C164.041 45.9965 169.111 44.4962 176.129 44.4962H194.029V41.3576C194.029 38.5295 193.65 36.2877 192.891 34.6322C192.132 32.9767 190.701 31.7695 188.597 31.0452C186.493 30.321 183.424 29.9588 179.371 29.9588C176.267 29.9588 173.249 30.2175 170.37 30.7176C167.472 31.2177 164.765 31.9075 162.23 32.787V25.4062C164.541 24.544 167.283 23.8369 170.421 23.2851C173.56 22.7505 176.94 22.4746 180.561 22.4746C187.873 22.4746 193.34 23.9576 196.995 26.9237C200.651 29.8898 202.479 34.7011 202.479 41.3576V74.9849H194.995L194.34 69.1217C192.098 71.4325 189.391 73.1742 186.2 74.3296C183.01 75.485 179.078 76.0713 174.37 76.0713H174.388ZM176.664 68.8113C180.423 68.8113 183.752 68.1387 186.649 66.8109C189.546 65.4658 191.995 63.6551 194.029 61.327V51.3423H176.336C172.284 51.3423 169.387 52.1011 167.662 53.6186C165.938 55.1362 165.058 57.447 165.058 60.5683C165.058 63.6896 166.11 65.8279 168.197 67.0178C170.301 68.2077 173.111 68.8113 176.664 68.8113Z" fill="black" fill-opacity="0.2"/>
<path d="M174.388 76.0713C171.128 76.0713 168.128 75.485 165.386 74.3296C162.644 73.1742 160.437 71.4497 158.764 69.1734C157.108 66.8971 156.263 64.0172 156.263 60.551C156.263 55.8432 157.815 51.9976 160.937 48.997C164.041 45.9965 169.111 44.4962 176.129 44.4962H194.029V41.3576C194.029 38.5295 193.65 36.2877 192.891 34.6322C192.132 32.9767 190.701 31.7695 188.597 31.0452C186.493 30.321 183.424 29.9588 179.371 29.9588C176.267 29.9588 173.249 30.2175 170.37 30.7176C167.472 31.2177 164.765 31.9075 162.23 32.787V25.4062C164.541 24.544 167.283 23.8369 170.421 23.2851C173.56 22.7505 176.94 22.4746 180.561 22.4746C187.873 22.4746 193.34 23.9576 196.995 26.9237C200.651 29.8898 202.479 34.7011 202.479 41.3576V74.9849H194.995L194.34 69.1217C192.098 71.4325 189.391 73.1742 186.2 74.3296C183.01 75.485 179.078 76.0713 174.37 76.0713H174.388ZM176.664 68.8113C180.423 68.8113 183.752 68.1387 186.649 66.8109C189.546 65.4658 191.995 63.6551 194.029 61.327V51.3423H176.336C172.284 51.3423 169.387 52.1011 167.662 53.6186C165.938 55.1362 165.058 57.447 165.058 60.5683C165.058 63.6896 166.11 65.8279 168.197 67.0178C170.301 68.2077 173.111 68.8113 176.664 68.8113Z" fill="black" fill-opacity="0.2"/>
<path d="M174.388 76.0713C171.128 76.0713 168.128 75.485 165.386 74.3296C162.644 73.1742 160.437 71.4497 158.764 69.1734C157.108 66.8971 156.263 64.0172 156.263 60.551C156.263 55.8432 157.815 51.9976 160.937 48.997C164.041 45.9965 169.111 44.4962 176.129 44.4962H194.029V41.3576C194.029 38.5295 193.65 36.2877 192.891 34.6322C192.132 32.9767 190.701 31.7695 188.597 31.0452C186.493 30.321 183.424 29.9588 179.371 29.9588C176.267 29.9588 173.249 30.2175 170.37 30.7176C167.472 31.2177 164.765 31.9075 162.23 32.787V25.4062C164.541 24.544 167.283 23.8369 170.421 23.2851C173.56 22.7505 176.94 22.4746 180.561 22.4746C187.873 22.4746 193.34 23.9576 196.995 26.9237C200.651 29.8898 202.479 34.7011 202.479 41.3576V74.9849H194.995L194.34 69.1217C192.098 71.4325 189.391 73.1742 186.2 74.3296C183.01 75.485 179.078 76.0713 174.37 76.0713H174.388ZM176.664 68.8113C180.423 68.8113 183.752 68.1387 186.649 66.8109C189.546 65.4658 191.995 63.6551 194.029 61.327V51.3423H176.336C172.284 51.3423 169.387 52.1011 167.662 53.6186C165.938 55.1362 165.058 57.447 165.058 60.5683C165.058 63.6896 166.11 65.8279 168.197 67.0178C170.301 68.2077 173.111 68.8113 176.664 68.8113Z" fill="black" fill-opacity="0.2"/>
<path d="M174.388 76.0713C171.128 76.0713 168.128 75.485 165.386 74.3296C162.644 73.1742 160.437 71.4497 158.764 69.1734C157.108 66.8971 156.263 64.0172 156.263 60.551C156.263 55.8432 157.815 51.9976 160.937 48.997C164.041 45.9965 169.111 44.4962 176.129 44.4962H194.029V41.3576C194.029 38.5295 193.65 36.2877 192.891 34.6322C192.132 32.9767 190.701 31.7695 188.597 31.0452C186.493 30.321 183.424 29.9588 179.371 29.9588C176.267 29.9588 173.249 30.2175 170.37 30.7176C167.472 31.2177 164.765 31.9075 162.23 32.787V25.4062C164.541 24.544 167.283 23.8369 170.421 23.2851C173.56 22.7505 176.94 22.4746 180.561 22.4746C187.873 22.4746 193.34 23.9576 196.995 26.9237C200.651 29.8898 202.479 34.7011 202.479 41.3576V74.9849H194.995L194.34 69.1217C192.098 71.4325 189.391 73.1742 186.2 74.3296C183.01 75.485 179.078 76.0713 174.37 76.0713H174.388ZM176.664 68.8113C180.423 68.8113 183.752 68.1387 186.649 66.8109C189.546 65.4658 191.995 63.6551 194.029 61.327V51.3423H176.336C172.284 51.3423 169.387 52.1011 167.662 53.6186C165.938 55.1362 165.058 57.447 165.058 60.5683C165.058 63.6896 166.11 65.8279 168.197 67.0178C170.301 68.2077 173.111 68.8113 176.664 68.8113Z" fill="black" fill-opacity="0.2"/>
<path d="M174.388 76.0713C171.128 76.0713 168.128 75.485 165.386 74.3296C162.644 73.1742 160.437 71.4497 158.764 69.1734C157.108 66.8971 156.263 64.0172 156.263 60.551C156.263 55.8432 157.815 51.9976 160.937 48.997C164.041 45.9965 169.111 44.4962 176.129 44.4962H194.029V41.3576C194.029 38.5295 193.65 36.2877 192.891 34.6322C192.132 32.9767 190.701 31.7695 188.597 31.0452C186.493 30.321 183.424 29.9588 179.371 29.9588C176.267 29.9588 173.249 30.2175 170.37 30.7176C167.472 31.2177 164.765 31.9075 162.23 32.787V25.4062C164.541 24.544 167.283 23.8369 170.421 23.2851C173.56 22.7505 176.94 22.4746 180.561 22.4746C187.873 22.4746 193.34 23.9576 196.995 26.9237C200.651 29.8898 202.479 34.7011 202.479 41.3576V74.9849H194.995L194.34 69.1217C192.098 71.4325 189.391 73.1742 186.2 74.3296C183.01 75.485 179.078 76.0713 174.37 76.0713H174.388ZM176.664 68.8113C180.423 68.8113 183.752 68.1387 186.649 66.8109C189.546 65.4658 191.995 63.6551 194.029 61.327V51.3423H176.336C172.284 51.3423 169.387 52.1011 167.662 53.6186C165.938 55.1362 165.058 57.447 165.058 60.5683C165.058 63.6896 166.11 65.8279 168.197 67.0178C170.301 68.2077 173.111 68.8113 176.664 68.8113Z" fill="black" fill-opacity="0.2"/>
<path d="M174.388 76.0713C171.128 76.0713 168.128 75.485 165.386 74.3296C162.644 73.1742 160.437 71.4497 158.764 69.1734C157.108 66.8971 156.263 64.0172 156.263 60.551C156.263 55.8432 157.815 51.9976 160.937 48.997C164.041 45.9965 169.111 44.4962 176.129 44.4962H194.029V41.3576C194.029 38.5295 193.65 36.2877 192.891 34.6322C192.132 32.9767 190.701 31.7695 188.597 31.0452C186.493 30.321 183.424 29.9588 179.371 29.9588C176.267 29.9588 173.249 30.2175 170.37 30.7176C167.472 31.2177 164.765 31.9075 162.23 32.787V25.4062C164.541 24.544 167.283 23.8369 170.421 23.2851C173.56 22.7505 176.94 22.4746 180.561 22.4746C187.873 22.4746 193.34 23.9576 196.995 26.9237C200.651 29.8898 202.479 34.7011 202.479 41.3576V74.9849H194.995L194.34 69.1217C192.098 71.4325 189.391 73.1742 186.2 74.3296C183.01 75.485 179.078 76.0713 174.37 76.0713H174.388ZM176.664 68.8113C180.423 68.8113 183.752 68.1387 186.649 66.8109C189.546 65.4658 191.995 63.6551 194.029 61.327V51.3423H176.336C172.284 51.3423 169.387 52.1011 167.662 53.6186C165.938 55.1362 165.058 57.447 165.058 60.5683C165.058 63.6896 166.11 65.8279 168.197 67.0178C170.301 68.2077 173.111 68.8113 176.664 68.8113Z" fill="black" fill-opacity="0.2"/>
<path d="M220.483 74.9868V30.616H212.774V23.5629H220.483V16.0787C220.483 11.1639 221.845 7.26662 224.553 4.42124C227.26 1.55861 231.261 0.144531 236.538 0.144531C238.417 0.144531 240.142 0.282489 241.694 0.57565C243.246 0.868811 244.677 1.26544 245.988 1.76554V8.491C243.746 7.69774 241.366 7.30111 238.831 7.30111C235.141 7.30111 232.64 7.97366 231.347 9.30151C230.036 10.6466 229.398 12.9056 229.398 16.0787V23.5629H243.28L242.849 30.616H229.398V74.9868H220.5H220.483Z" fill="#1F1813"/>
<path d="M220.483 74.9868V30.616H212.774V23.5629H220.483V16.0787C220.483 11.1639 221.845 7.26662 224.553 4.42124C227.26 1.55861 231.261 0.144531 236.538 0.144531C238.417 0.144531 240.142 0.282489 241.694 0.57565C243.246 0.868811 244.677 1.26544 245.988 1.76554V8.491C243.746 7.69774 241.366 7.30111 238.831 7.30111C235.141 7.30111 232.64 7.97366 231.347 9.30151C230.036 10.6466 229.398 12.9056 229.398 16.0787V23.5629H243.28L242.849 30.616H229.398V74.9868H220.5H220.483Z" fill="black" fill-opacity="0.2"/>
<path d="M220.483 74.9868V30.616H212.774V23.5629H220.483V16.0787C220.483 11.1639 221.845 7.26662 224.553 4.42124C227.26 1.55861 231.261 0.144531 236.538 0.144531C238.417 0.144531 240.142 0.282489 241.694 0.57565C243.246 0.868811 244.677 1.26544 245.988 1.76554V8.491C243.746 7.69774 241.366 7.30111 238.831 7.30111C235.141 7.30111 232.64 7.97366 231.347 9.30151C230.036 10.6466 229.398 12.9056 229.398 16.0787V23.5629H243.28L242.849 30.616H229.398V74.9868H220.5H220.483Z" fill="black" fill-opacity="0.2"/>
<path d="M220.483 74.9868V30.616H212.774V23.5629H220.483V16.0787C220.483 11.1639 221.845 7.26662 224.553 4.42124C227.26 1.55861 231.261 0.144531 236.538 0.144531C238.417 0.144531 240.142 0.282489 241.694 0.57565C243.246 0.868811 244.677 1.26544 245.988 1.76554V8.491C243.746 7.69774 241.366 7.30111 238.831 7.30111C235.141 7.30111 232.64 7.97366 231.347 9.30151C230.036 10.6466 229.398 12.9056 229.398 16.0787V23.5629H243.28L242.849 30.616H229.398V74.9868H220.5H220.483Z" fill="black" fill-opacity="0.2"/>
<path d="M220.483 74.9868V30.616H212.774V23.5629H220.483V16.0787C220.483 11.1639 221.845 7.26662 224.553 4.42124C227.26 1.55861 231.261 0.144531 236.538 0.144531C238.417 0.144531 240.142 0.282489 241.694 0.57565C243.246 0.868811 244.677 1.26544 245.988 1.76554V8.491C243.746 7.69774 241.366 7.30111 238.831 7.30111C235.141 7.30111 232.64 7.97366 231.347 9.30151C230.036 10.6466 229.398 12.9056 229.398 16.0787V23.5629H243.28L242.849 30.616H229.398V74.9868H220.5H220.483Z" fill="black" fill-opacity="0.2"/>
<path d="M220.483 74.9868V30.616H212.774V23.5629H220.483V16.0787C220.483 11.1639 221.845 7.26662 224.553 4.42124C227.26 1.55861 231.261 0.144531 236.538 0.144531C238.417 0.144531 240.142 0.282489 241.694 0.57565C243.246 0.868811 244.677 1.26544 245.988 1.76554V8.491C243.746 7.69774 241.366 7.30111 238.831 7.30111C235.141 7.30111 232.64 7.97366 231.347 9.30151C230.036 10.6466 229.398 12.9056 229.398 16.0787V23.5629H243.28L242.849 30.616H229.398V74.9868H220.5H220.483Z" fill="black" fill-opacity="0.2"/>
<path d="M220.483 74.9868V30.616H212.774V23.5629H220.483V16.0787C220.483 11.1639 221.845 7.26662 224.553 4.42124C227.26 1.55861 231.261 0.144531 236.538 0.144531C238.417 0.144531 240.142 0.282489 241.694 0.57565C243.246 0.868811 244.677 1.26544 245.988 1.76554V8.491C243.746 7.69774 241.366 7.30111 238.831 7.30111C235.141 7.30111 232.64 7.97366 231.347 9.30151C230.036 10.6466 229.398 12.9056 229.398 16.0787V23.5629H243.28L242.849 30.616H229.398V74.9868H220.5H220.483Z" fill="black" fill-opacity="0.2"/>
<path d="M220.483 74.9868V30.616H212.774V23.5629H220.483V16.0787C220.483 11.1639 221.845 7.26662 224.553 4.42124C227.26 1.55861 231.261 0.144531 236.538 0.144531C238.417 0.144531 240.142 0.282489 241.694 0.57565C243.246 0.868811 244.677 1.26544 245.988 1.76554V8.491C243.746 7.69774 241.366 7.30111 238.831 7.30111C235.141 7.30111 232.64 7.97366 231.347 9.30151C230.036 10.6466 229.398 12.9056 229.398 16.0787V23.5629H243.28L242.849 30.616H229.398V74.9868H220.5H220.483Z" fill="black" fill-opacity="0.2"/>
<path d="M220.483 74.9868V30.616H212.774V23.5629H220.483V16.0787C220.483 11.1639 221.845 7.26662 224.553 4.42124C227.26 1.55861 231.261 0.144531 236.538 0.144531C238.417 0.144531 240.142 0.282489 241.694 0.57565C243.246 0.868811 244.677 1.26544 245.988 1.76554V8.491C243.746 7.69774 241.366 7.30111 238.831 7.30111C235.141 7.30111 232.64 7.97366 231.347 9.30151C230.036 10.6466 229.398 12.9056 229.398 16.0787V23.5629H243.28L242.849 30.616H229.398V74.9868H220.5H220.483Z" fill="black" fill-opacity="0.2"/>
<path d="M277.011 76.0713C267.82 76.0713 260.956 73.864 256.404 69.4493C251.851 65.0347 249.575 58.2402 249.575 49.0488C249.575 40.8058 251.541 34.3045 255.49 29.5794C259.439 24.8371 265.664 22.4746 274.2 22.4746C279.27 22.4746 283.443 23.3886 286.737 25.2338C290.031 27.079 292.48 29.6139 294.118 32.8215C295.739 36.0462 296.549 39.6676 296.549 43.7201V53.3772H258.473C258.766 57.2918 259.611 60.3613 261.025 62.6032C262.439 64.845 264.56 66.4487 267.423 67.4317C270.286 68.4146 274.062 68.8975 278.753 68.8975C284.03 68.8975 288.876 68.0007 293.29 66.1901V73.1397C291.048 74.0881 288.531 74.8124 285.754 75.3125C282.978 75.8126 280.063 76.0713 277.028 76.0713H277.011ZM258.456 46.9966H288.617V42.7717C288.617 38.5812 287.513 35.3392 285.306 33.0629C283.099 30.7866 279.46 29.6484 274.407 29.6484C268.251 29.6484 264.06 31.097 261.818 33.9941C259.577 36.8912 258.456 41.2197 258.456 47.0139V46.9966Z" fill="#1F1813"/>
<path d="M277.011 76.0713C267.82 76.0713 260.956 73.864 256.404 69.4493C251.851 65.0347 249.575 58.2402 249.575 49.0488C249.575 40.8058 251.541 34.3045 255.49 29.5794C259.439 24.8371 265.664 22.4746 274.2 22.4746C279.27 22.4746 283.443 23.3886 286.737 25.2338C290.031 27.079 292.48 29.6139 294.118 32.8215C295.739 36.0462 296.549 39.6676 296.549 43.7201V53.3772H258.473C258.766 57.2918 259.611 60.3613 261.025 62.6032C262.439 64.845 264.56 66.4487 267.423 67.4317C270.286 68.4146 274.062 68.8975 278.753 68.8975C284.03 68.8975 288.876 68.0007 293.29 66.1901V73.1397C291.048 74.0881 288.531 74.8124 285.754 75.3125C282.978 75.8126 280.063 76.0713 277.028 76.0713H277.011ZM258.456 46.9966H288.617V42.7717C288.617 38.5812 287.513 35.3392 285.306 33.0629C283.099 30.7866 279.46 29.6484 274.407 29.6484C268.251 29.6484 264.06 31.097 261.818 33.9941C259.577 36.8912 258.456 41.2197 258.456 47.0139V46.9966Z" fill="black" fill-opacity="0.2"/>
<path d="M277.011 76.0713C267.82 76.0713 260.956 73.864 256.404 69.4493C251.851 65.0347 249.575 58.2402 249.575 49.0488C249.575 40.8058 251.541 34.3045 255.49 29.5794C259.439 24.8371 265.664 22.4746 274.2 22.4746C279.27 22.4746 283.443 23.3886 286.737 25.2338C290.031 27.079 292.48 29.6139 294.118 32.8215C295.739 36.0462 296.549 39.6676 296.549 43.7201V53.3772H258.473C258.766 57.2918 259.611 60.3613 261.025 62.6032C262.439 64.845 264.56 66.4487 267.423 67.4317C270.286 68.4146 274.062 68.8975 278.753 68.8975C284.03 68.8975 288.876 68.0007 293.29 66.1901V73.1397C291.048 74.0881 288.531 74.8124 285.754 75.3125C282.978 75.8126 280.063 76.0713 277.028 76.0713H277.011ZM258.456 46.9966H288.617V42.7717C288.617 38.5812 287.513 35.3392 285.306 33.0629C283.099 30.7866 279.46 29.6484 274.407 29.6484C268.251 29.6484 264.06 31.097 261.818 33.9941C259.577 36.8912 258.456 41.2197 258.456 47.0139V46.9966Z" fill="black" fill-opacity="0.2"/>
<path d="M277.011 76.0713C267.82 76.0713 260.956 73.864 256.404 69.4493C251.851 65.0347 249.575 58.2402 249.575 49.0488C249.575 40.8058 251.541 34.3045 255.49 29.5794C259.439 24.8371 265.664 22.4746 274.2 22.4746C279.27 22.4746 283.443 23.3886 286.737 25.2338C290.031 27.079 292.48 29.6139 294.118 32.8215C295.739 36.0462 296.549 39.6676 296.549 43.7201V53.3772H258.473C258.766 57.2918 259.611 60.3613 261.025 62.6032C262.439 64.845 264.56 66.4487 267.423 67.4317C270.286 68.4146 274.062 68.8975 278.753 68.8975C284.03 68.8975 288.876 68.0007 293.29 66.1901V73.1397C291.048 74.0881 288.531 74.8124 285.754 75.3125C282.978 75.8126 280.063 76.0713 277.028 76.0713H277.011ZM258.456 46.9966H288.617V42.7717C288.617 38.5812 287.513 35.3392 285.306 33.0629C283.099 30.7866 279.46 29.6484 274.407 29.6484C268.251 29.6484 264.06 31.097 261.818 33.9941C259.577 36.8912 258.456 41.2197 258.456 47.0139V46.9966Z" fill="black" fill-opacity="0.2"/>
<path d="M277.011 76.0713C267.82 76.0713 260.956 73.864 256.404 69.4493C251.851 65.0347 249.575 58.2402 249.575 49.0488C249.575 40.8058 251.541 34.3045 255.49 29.5794C259.439 24.8371 265.664 22.4746 274.2 22.4746C279.27 22.4746 283.443 23.3886 286.737 25.2338C290.031 27.079 292.48 29.6139 294.118 32.8215C295.739 36.0462 296.549 39.6676 296.549 43.7201V53.3772H258.473C258.766 57.2918 259.611 60.3613 261.025 62.6032C262.439 64.845 264.56 66.4487 267.423 67.4317C270.286 68.4146 274.062 68.8975 278.753 68.8975C284.03 68.8975 288.876 68.0007 293.29 66.1901V73.1397C291.048 74.0881 288.531 74.8124 285.754 75.3125C282.978 75.8126 280.063 76.0713 277.028 76.0713H277.011ZM258.456 46.9966H288.617V42.7717C288.617 38.5812 287.513 35.3392 285.306 33.0629C283.099 30.7866 279.46 29.6484 274.407 29.6484C268.251 29.6484 264.06 31.097 261.818 33.9941C259.577 36.8912 258.456 41.2197 258.456 47.0139V46.9966Z" fill="black" fill-opacity="0.2"/>
<path d="M277.011 76.0713C267.82 76.0713 260.956 73.864 256.404 69.4493C251.851 65.0347 249.575 58.2402 249.575 49.0488C249.575 40.8058 251.541 34.3045 255.49 29.5794C259.439 24.8371 265.664 22.4746 274.2 22.4746C279.27 22.4746 283.443 23.3886 286.737 25.2338C290.031 27.079 292.48 29.6139 294.118 32.8215C295.739 36.0462 296.549 39.6676 296.549 43.7201V53.3772H258.473C258.766 57.2918 259.611 60.3613 261.025 62.6032C262.439 64.845 264.56 66.4487 267.423 67.4317C270.286 68.4146 274.062 68.8975 278.753 68.8975C284.03 68.8975 288.876 68.0007 293.29 66.1901V73.1397C291.048 74.0881 288.531 74.8124 285.754 75.3125C282.978 75.8126 280.063 76.0713 277.028 76.0713H277.011ZM258.456 46.9966H288.617V42.7717C288.617 38.5812 287.513 35.3392 285.306 33.0629C283.099 30.7866 279.46 29.6484 274.407 29.6484C268.251 29.6484 264.06 31.097 261.818 33.9941C259.577 36.8912 258.456 41.2197 258.456 47.0139V46.9966Z" fill="black" fill-opacity="0.2"/>
<path d="M277.011 76.0713C267.82 76.0713 260.956 73.864 256.404 69.4493C251.851 65.0347 249.575 58.2402 249.575 49.0488C249.575 40.8058 251.541 34.3045 255.49 29.5794C259.439 24.8371 265.664 22.4746 274.2 22.4746C279.27 22.4746 283.443 23.3886 286.737 25.2338C290.031 27.079 292.48 29.6139 294.118 32.8215C295.739 36.0462 296.549 39.6676 296.549 43.7201V53.3772H258.473C258.766 57.2918 259.611 60.3613 261.025 62.6032C262.439 64.845 264.56 66.4487 267.423 67.4317C270.286 68.4146 274.062 68.8975 278.753 68.8975C284.03 68.8975 288.876 68.0007 293.29 66.1901V73.1397C291.048 74.0881 288.531 74.8124 285.754 75.3125C282.978 75.8126 280.063 76.0713 277.028 76.0713H277.011ZM258.456 46.9966H288.617V42.7717C288.617 38.5812 287.513 35.3392 285.306 33.0629C283.099 30.7866 279.46 29.6484 274.407 29.6484C268.251 29.6484 264.06 31.097 261.818 33.9941C259.577 36.8912 258.456 41.2197 258.456 47.0139V46.9966Z" fill="black" fill-opacity="0.2"/>
<path d="M277.011 76.0713C267.82 76.0713 260.956 73.864 256.404 69.4493C251.851 65.0347 249.575 58.2402 249.575 49.0488C249.575 40.8058 251.541 34.3045 255.49 29.5794C259.439 24.8371 265.664 22.4746 274.2 22.4746C279.27 22.4746 283.443 23.3886 286.737 25.2338C290.031 27.079 292.48 29.6139 294.118 32.8215C295.739 36.0462 296.549 39.6676 296.549 43.7201V53.3772H258.473C258.766 57.2918 259.611 60.3613 261.025 62.6032C262.439 64.845 264.56 66.4487 267.423 67.4317C270.286 68.4146 274.062 68.8975 278.753 68.8975C284.03 68.8975 288.876 68.0007 293.29 66.1901V73.1397C291.048 74.0881 288.531 74.8124 285.754 75.3125C282.978 75.8126 280.063 76.0713 277.028 76.0713H277.011ZM258.456 46.9966H288.617V42.7717C288.617 38.5812 287.513 35.3392 285.306 33.0629C283.099 30.7866 279.46 29.6484 274.407 29.6484C268.251 29.6484 264.06 31.097 261.818 33.9941C259.577 36.8912 258.456 41.2197 258.456 47.0139V46.9966Z" fill="black" fill-opacity="0.2"/>
<path d="M277.011 76.0713C267.82 76.0713 260.956 73.864 256.404 69.4493C251.851 65.0347 249.575 58.2402 249.575 49.0488C249.575 40.8058 251.541 34.3045 255.49 29.5794C259.439 24.8371 265.664 22.4746 274.2 22.4746C279.27 22.4746 283.443 23.3886 286.737 25.2338C290.031 27.079 292.48 29.6139 294.118 32.8215C295.739 36.0462 296.549 39.6676 296.549 43.7201V53.3772H258.473C258.766 57.2918 259.611 60.3613 261.025 62.6032C262.439 64.845 264.56 66.4487 267.423 67.4317C270.286 68.4146 274.062 68.8975 278.753 68.8975C284.03 68.8975 288.876 68.0007 293.29 66.1901V73.1397C291.048 74.0881 288.531 74.8124 285.754 75.3125C282.978 75.8126 280.063 76.0713 277.028 76.0713H277.011ZM258.456 46.9966H288.617V42.7717C288.617 38.5812 287.513 35.3392 285.306 33.0629C283.099 30.7866 279.46 29.6484 274.407 29.6484C268.251 29.6484 264.06 31.097 261.818 33.9941C259.577 36.8912 258.456 41.2197 258.456 47.0139V46.9966Z" fill="black" fill-opacity="0.2"/>
<path d="M172.542 187.682C169.404 187.682 166.869 185.147 166.869 182.008V139.034C166.869 124.428 154.987 112.564 140.398 112.564C125.809 112.564 113.927 124.445 113.927 139.034V182.008C113.927 185.147 111.393 187.682 108.254 187.682C105.115 187.682 102.58 185.147 102.58 182.008V139.034C102.58 118.168 119.549 101.199 140.415 101.199C161.282 101.199 178.25 118.168 178.25 139.034V182.008C178.25 185.147 175.715 187.682 172.577 187.682H172.542Z" fill="#376E27"/>
<path d="M215.982 190.856C195.116 190.856 178.147 173.887 178.147 153.021V142.208C178.147 121.342 195.116 104.373 215.982 104.373C236.848 104.373 253.817 121.342 253.817 142.208V153.021C253.817 173.887 236.848 190.856 215.982 190.856ZM215.982 115.72C201.376 115.72 189.511 127.602 189.511 142.191V153.003C189.511 167.61 201.393 179.474 215.982 179.474C230.571 179.474 242.453 167.592 242.453 153.003V142.191C242.453 127.585 230.571 115.72 215.982 115.72Z" fill="#376E27"/>
<path d="M291.652 190.856C270.786 190.856 253.817 173.887 253.817 153.021V142.208C253.817 121.342 270.786 104.373 291.652 104.373C312.518 104.373 329.487 121.342 329.487 142.208V153.021C329.487 173.887 312.518 190.856 291.652 190.856ZM291.652 115.72C277.046 115.72 265.181 127.602 265.181 142.191V153.003C265.181 167.61 277.063 179.474 291.652 179.474C306.241 179.474 318.123 167.592 318.123 153.003V142.191C318.123 127.585 306.241 115.72 291.652 115.72Z" fill="#376E27"/>
<path d="M335.109 188.37C331.97 188.37 329.435 185.835 329.435 182.697V32.0466C329.435 28.908 331.97 26.373 335.109 26.373C338.247 26.373 340.782 28.908 340.782 32.0466V182.697C340.782 185.835 338.247 188.37 335.109 188.37Z" fill="#376E27"/>
<path d="M390.309 188.369C387.171 188.369 384.636 185.834 384.636 182.695V152.465C384.636 142.687 377.014 134.289 367.27 133.341C364.149 133.03 361.855 130.254 362.166 127.133C362.476 124.011 365.287 121.718 368.374 122.028C383.877 123.528 396 136.893 396 152.465V182.695C396 185.834 393.465 188.369 390.326 188.369H390.309Z" fill="#376E27"/>
<path d="M336.195 173.504C334.971 173.504 333.729 173.107 332.677 172.279C330.211 170.331 329.78 166.761 331.729 164.295L385.843 95.5919C387.792 93.1259 391.344 92.6947 393.827 94.6434C396.293 96.5921 396.724 100.162 394.776 102.628L340.662 171.331C339.541 172.745 337.868 173.504 336.195 173.504Z" fill="#376E27"/>
<path d="M34.205 159.983C34.205 147.464 44.4484 137.238 56.9508 137.238C69.4533 137.238 79.6966 147.481 79.6966 159.983V181.988H108.219L56.9508 32.0273L5.68216 182.005H34.205V160.001V159.983Z" fill="#376E27"/>
<path d="M108.219 187.681H79.6966C76.5581 187.681 74.0231 185.146 74.0231 182.007V160.003C74.0231 150.587 66.3665 142.93 56.9508 142.93C47.5352 142.93 39.8785 150.587 39.8785 160.003V182.007C39.8785 185.146 37.3435 187.681 34.205 187.681H5.68216C3.85421 187.681 2.12974 186.801 1.06056 185.301C-0.00861353 183.818 -0.28453 181.886 0.301792 180.162L51.5877 30.2186C52.381 27.9251 54.5365 26.373 56.9681 26.373C59.3996 26.373 61.5552 27.9251 62.3484 30.2186L113.617 180.179C114.203 181.921 113.927 183.835 112.858 185.318C111.789 186.801 110.065 187.698 108.237 187.698L108.219 187.681ZM85.3874 176.316H100.27L56.9508 49.6017L13.632 176.316H28.5142V159.985C28.5142 144.31 41.2753 131.549 56.9508 131.549C72.6263 131.549 85.3874 144.31 85.3874 159.985V176.316Z" fill="#376E27"/>
</svg>
