<?xml version="1.0" encoding="UTF-8"?>
<svg id="Layer_2" data-name="Layer 2" xmlns="http://www.w3.org/2000/svg" viewBox="0 0 30.01 30">
  <defs>
    <style>
      .cls-1 {
        fill: #fffdf0;
      }
    </style>
  </defs>
  <g id="Layer_3" data-name="Layer 3">
    <path class="cls-1" d="M15.01,7.31c-4.26,0-7.69,3.43-7.69,7.69s3.43,7.69,7.69,7.69,7.69-3.43,7.69-7.69-3.43-7.69-7.69-7.69Zm0,12.69c-2.75,0-5-2.24-5-5s2.24-5,5-5,5,2.24,5,5-2.25,5-5,5h0ZM24.81,6.99c0,1-.8,1.79-1.79,1.79s-1.79-.8-1.79-1.79,.8-1.79,1.79-1.79,1.79,.8,1.79,1.79Zm5.09,1.82c-.11-2.4-.66-4.53-2.42-6.29C25.72,.77,23.6,.23,21.19,.11,18.72-.04,11.29-.04,8.81,.11c-2.4,.11-4.53,.66-6.29,2.42C.77,4.28,.23,6.4,.11,8.81-.04,11.28-.04,18.71,.11,21.19c.11,2.4,.66,4.53,2.42,6.29,1.76,1.75,3.88,2.3,6.29,2.42,2.48,.14,9.9,.14,12.38,0,2.4-.11,4.53-.66,6.29-2.42,1.75-1.75,2.3-3.88,2.42-6.29,.14-2.48,.14-9.89,0-12.37h0Zm-3.2,15.03c-.52,1.31-1.53,2.32-2.85,2.85-1.97,.78-6.66,.6-8.84,.6s-6.87,.17-8.84-.6c-1.31-.52-2.32-1.53-2.85-2.85-.78-1.97-.6-6.66-.6-8.84s-.17-6.87,.6-8.84c.52-1.31,1.53-2.32,2.85-2.85,1.97-.78,6.66-.6,8.84-.6s6.87-.17,8.84,.6c1.31,.52,2.32,1.53,2.85,2.85,.78,1.97,.6,6.66,.6,8.84s.18,6.87-.6,8.84Z"/>
  </g>
</svg>